<?xml version="1.0" encoding="UTF-8" standalone="no"?><!DOCTYPE svg PUBLIC "-//W3C//DTD SVG 1.1//EN" "http://www.w3.org/Graphics/SVG/1.1/DTD/svg11.dtd"><svg width="100%" height="100%" viewBox="0 0 21 21" version="1.1" xmlns="http://www.w3.org/2000/svg" xmlns:xlink="http://www.w3.org/1999/xlink" xml:space="preserve" xmlns:serif="http://www.serif.com/" style="fill-rule:evenodd;clip-rule:evenodd;stroke-linecap:round;stroke-linejoin:round;stroke-miterlimit:1.5;"><g id="webpage"><path d="M20.999,10.499c-0,5.799 -4.701,10.5 -10.5,10.5c-5.798,-0 -10.499,-4.701 -10.499,-10.5c0,-5.798 4.701,-10.499 10.499,-10.499c5.8,-0 10.5,4.701 10.5,10.499Z" style="fill:#afb5ba;fill-rule:nonzero;"/><path d="M0.162,10.5c-0,-5.706 4.632,-10.338 10.337,-10.338c5.706,0 10.338,4.632 10.338,10.338c0,5.706 -4.632,10.338 -10.338,10.338c-5.705,-0 -10.337,-4.632 -10.337,-10.338Zm1.207,-2.973c0.772,-0.889 1.88,-1.653 3.22,-2.226c0.608,-1.575 1.484,-2.886 2.532,-3.789c-2.717,1.022 -4.849,3.242 -5.752,6.015Zm12.509,-6.015c1.048,0.903 1.924,2.214 2.532,3.789c1.339,0.573 2.447,1.337 3.22,2.226c-0.903,-2.773 -3.036,-4.993 -5.752,-6.015Zm5.752,11.961c-0.773,0.889 -1.881,1.653 -3.22,2.226c-0.608,1.575 -1.484,2.886 -2.532,3.789c2.716,-1.022 4.849,-3.242 5.752,-6.015Zm-12.509,6.015c-1.048,-0.903 -1.924,-2.214 -2.532,-3.789c-1.34,-0.573 -2.448,-1.337 -3.22,-2.226c0.903,2.773 3.035,4.993 5.752,6.015Zm-1.642,-14.529c0.849,-0.29 1.772,-0.508 2.747,-0.643c0.257,-1.252 0.59,-2.286 0.975,-3.009c-1.52,0.49 -2.835,1.82 -3.722,3.652Zm-4.101,4.205c0.616,-0.316 1.445,-0.597 2.434,-0.827c0.105,-0.746 0.263,-1.461 0.468,-2.138c-1.415,0.77 -2.449,1.799 -2.902,2.965Zm15.34,-2.965c0.206,0.677 0.364,1.392 0.469,2.138c0.989,0.23 1.817,0.511 2.434,0.827c-0.453,-1.166 -1.487,-2.195 -2.903,-2.965Zm-4.92,-4.892c0.385,0.723 0.718,1.757 0.975,3.009c0.975,0.135 1.898,0.353 2.747,0.643c-0.887,-1.832 -2.202,-3.162 -3.722,-3.652Zm3.722,14.734c-0.849,0.29 -1.772,0.508 -2.747,0.643c-0.257,1.252 -0.59,2.286 -0.975,3.009c1.52,-0.49 2.835,-1.82 3.722,-3.652Zm4.101,-4.205c-0.617,0.316 -1.445,0.597 -2.434,0.827c-0.105,0.746 -0.263,1.461 -0.469,2.138c1.416,-0.77 2.45,-1.799 2.903,-2.965Zm-15.341,2.965c-0.205,-0.677 -0.363,-1.392 -0.468,-2.138c-0.989,-0.23 -1.818,-0.511 -2.434,-0.827c0.453,1.166 1.487,2.195 2.902,2.965Zm4.921,4.892c-0.385,-0.723 -0.718,-1.757 -0.975,-3.009c-0.975,-0.135 -1.898,-0.353 -2.747,-0.643c0.887,1.832 2.202,3.162 3.722,3.652Zm-0.504,-15.435c0.586,-0.063 1.188,-0.096 1.802,-0.096c0.615,0 1.217,0.033 1.803,0.096c-0.454,-1.736 -1.094,-2.818 -1.803,-2.818c-0.709,-0 -1.349,1.082 -1.802,2.818Zm-3.578,1.535c-0.285,0.742 -0.505,1.549 -0.647,2.402c0.982,-0.194 2.093,-0.342 3.29,-0.432c0.076,-1.011 0.194,-1.96 0.345,-2.822c-1.085,0.175 -2.094,0.467 -2.988,0.852Zm-1.37,6.365c-0.057,-0.54 -0.087,-1.094 -0.087,-1.658c-0,-0.564 0.03,-1.118 0.087,-1.658c-1.436,0.44 -2.31,1.021 -2.31,1.658c0,0.637 0.874,1.218 2.31,1.658Zm13.501,-3.316c0.057,0.54 0.087,1.094 0.087,1.658c0,0.564 -0.03,1.118 -0.087,1.658c1.436,-0.44 2.31,-1.021 2.31,-1.658c-0,-0.637 -0.874,-1.218 -2.31,-1.658Zm-1.37,-3.049c-0.894,-0.385 -1.903,-0.677 -2.988,-0.852c0.151,0.862 0.268,1.811 0.345,2.822c1.197,0.09 2.308,0.238 3.29,0.432c-0.142,-0.853 -0.362,-1.66 -0.647,-2.402Zm-3.578,10.949c-0.586,0.063 -1.188,0.096 -1.803,0.096c-0.614,-0 -1.216,-0.033 -1.802,-0.096c0.453,1.736 1.093,2.818 1.802,2.818c0.709,0 1.349,-1.082 1.803,-2.818Zm3.578,-1.535c0.285,-0.742 0.505,-1.549 0.647,-2.402c-0.982,0.194 -2.093,0.342 -3.29,0.432c-0.077,1.011 -0.194,1.96 -0.345,2.822c1.085,-0.175 2.094,-0.467 2.988,-0.852Zm-10.761,0c0.894,0.385 1.903,0.677 2.988,0.852c-0.151,-0.862 -0.269,-1.811 -0.345,-2.822c-1.197,-0.09 -2.308,-0.238 -3.29,-0.432c0.142,0.853 0.362,1.66 0.647,2.402Zm7.33,-10.331c-0.629,-0.082 -1.281,-0.124 -1.95,-0.124c-0.668,-0 -1.32,0.042 -1.949,0.124c-0.184,0.845 -0.328,1.811 -0.42,2.861c0.761,-0.049 1.554,-0.075 2.369,-0.075c0.815,0 1.609,0.026 2.37,0.075c-0.093,-1.05 -0.236,-2.016 -0.42,-2.861Zm-8.047,3.785c-0.078,0.595 -0.119,1.21 -0.119,1.839c-0,0.629 0.041,1.244 0.119,1.839c0.949,0.237 2.083,0.42 3.335,0.53c-0.05,-0.761 -0.075,-1.554 -0.075,-2.369c-0,-0.815 0.025,-1.608 0.075,-2.369c-1.252,0.11 -2.386,0.293 -3.335,0.53Zm12.195,3.678c0.078,-0.595 0.119,-1.21 0.119,-1.839c-0,-0.629 -0.041,-1.244 -0.119,-1.839c-0.95,-0.237 -2.083,-0.42 -3.335,-0.53c0.049,0.761 0.075,1.554 0.075,2.369c0,0.815 -0.026,1.608 -0.075,2.369c1.252,-0.11 2.385,-0.293 3.335,-0.53Zm-8.047,3.785c0.629,0.082 1.281,0.124 1.949,0.124c0.669,0 1.321,-0.042 1.95,-0.124c0.184,-0.845 0.327,-1.811 0.42,-2.861c-0.761,0.049 -1.555,0.075 -2.37,0.075c-0.815,-0 -1.608,-0.026 -2.369,-0.075c0.092,1.05 0.236,2.016 0.42,2.861Zm4.348,-8.023c-0.764,-0.057 -1.568,-0.088 -2.399,-0.088c-0.83,-0 -1.634,0.031 -2.399,0.088c-0.057,0.764 -0.088,1.569 -0.088,2.399c0,0.83 0.031,1.635 0.088,2.399c0.765,0.057 1.569,0.088 2.399,0.088c0.831,0 1.635,-0.031 2.399,-0.088c0.058,-0.764 0.089,-1.569 0.089,-2.399c-0,-0.83 -0.031,-1.635 -0.089,-2.399Z" style="fill:#fff;stroke:#000;stroke-width:0.3px;"/></g></svg>